<svg width="39" height="36" viewBox="0 0 39 36" fill="none" xmlns="http://www.w3.org/2000/svg">
<path d="M7.8759 5.678C10.005 2.80309 13.7159 0.780653 17.2704 0.229304C19.104 -0.0482712 20.9754 0.0336872 22.7766 0.470448C24.5778 0.907209 26.2731 1.69012 27.7647 2.774C28.9365 3.61463 29.9805 4.61482 30.8655 5.74448C31.5554 6.56693 32.1538 7.45948 32.6505 8.40693C32.7621 8.6234 33.3403 10.0626 33.4278 10.1213C33.3781 10.2426 33.731 11.2628 33.7893 11.5104C33.9228 12.092 34.0257 12.6798 34.0976 13.2717C34.3032 15.0115 34.178 16.7737 33.7283 18.4685C33.2823 20.129 32.4785 21.8047 31.3717 23.1265C30.6027 24.0448 30.2874 24.8428 30.7482 26.0252C30.9816 26.6241 31.6139 27.1343 32.198 27.3954C33.2656 27.8474 34.7303 27.6471 35.1965 26.4661C35.4229 25.9177 35.2854 25.1959 34.64 25.0066C34.0984 24.848 34.0382 25.5964 33.7466 25.8158C33.385 26.0878 32.8 25.9581 32.5698 25.5774C31.9675 24.5813 32.5444 23.3938 33.4899 22.8522C35.2221 21.8861 37.1693 22.6867 38.1148 24.3022C38.7465 25.3999 38.9151 26.697 38.5844 27.9155C38.2212 29.23 37.33 30.3028 36.124 30.9662C34.5028 31.8578 32.592 31.93 30.8239 31.4489C30.2198 31.2846 29.6725 31.0207 29.1095 30.7609C29.5842 31.4633 30.0706 32.3521 29.8319 33.1658C29.0894 35.6958 25.6591 35.2286 24.0843 33.7598C23.2959 33.0246 23.0458 32.6499 22.5126 31.8201C22.6116 32.5704 22.584 33.2193 22.0843 33.8679C20.6168 35.772 16.5988 35.2598 16.3217 32.656C16.2957 32.4111 16.3066 32.1014 16.3167 31.8475C15.3388 33.3484 14.3853 34.4447 12.5298 34.877C11.0872 35.2132 9.24366 34.714 8.91146 33.1148C8.69675 32.0705 9.13844 31.3693 9.68682 30.5224C9.10939 30.8886 8.59783 31.0718 7.97123 31.2928C4.72546 32.4376 0.832148 31.0497 0.0935289 27.4898C-0.264939 25.7624 0.418449 23.9515 1.94707 22.9575C3.23669 22.1329 5.13507 22.2385 6.01467 23.584C6.42992 24.2421 6.58711 25.3325 5.80823 25.7994C5.46392 26.0129 4.96946 26.0192 4.79272 25.5973C4.58726 25.1033 4.33271 24.7345 3.77148 25.1083C3.2173 25.4775 3.32898 26.4424 3.71314 26.8735C5.14456 28.4799 7.79956 27.1695 8.00519 25.2255C8.15255 23.8325 7.39298 23.3064 6.73259 22.202C6.27078 21.4435 5.94986 20.8536 5.60359 20.0369C5.04891 18.6971 4.72132 17.2771 4.63382 15.8333C4.53997 14.4165 4.65818 12.9939 4.98468 11.6108C5.0791 11.2142 5.35092 10.4864 5.40108 10.1537C5.50646 10.0365 5.84268 9.10787 5.94242 8.88288C6.4539 7.72994 7.12648 6.69075 7.8759 5.678Z" fill="url(#paint0_linear_15060_1630)"/>
<path d="M13.4165 15.0726L13.451 15.0673C14.5167 14.9555 15.5859 15.2452 16.4426 15.8779C16.945 16.2508 17.3671 16.7179 17.6844 17.2522C18.0018 17.7865 18.2081 18.3773 18.2914 18.9905C18.4628 20.2437 18.1507 21.6072 17.3628 22.6165C17.0226 23.06 16.5959 23.4326 16.1076 23.7126C15.6193 23.9925 15.0792 24.1742 14.5188 24.2471C10.7996 24.7074 8.55007 20.6475 10.0155 17.5518C10.7024 16.1009 11.8333 15.316 13.4165 15.0726Z" fill="#E9E8F2"/>
<path d="M14.2602 17.2306C15.0716 17.1631 15.9021 17.3834 16.4949 17.9418C18.4162 19.7512 17.3101 22.962 14.5788 23.0616C14.2428 23.0513 13.9116 22.9801 13.6018 22.8517C12.0613 22.2215 11.4397 20.4988 12.0587 19.0101C12.3072 19.0373 13.2362 19.1714 13.2192 18.6338C13.2127 18.4257 12.859 18.1686 12.6741 18.0552C13.2631 17.5485 13.4911 17.375 14.2602 17.2306Z" fill="#010130"/>
<path d="M26.2284 17.1851C26.2677 17.1828 26.3215 17.1814 26.3594 17.1906C28.2345 17.6504 28.9728 19.6109 28.6619 21.3135C28.578 21.7893 28.3983 22.2439 28.1332 22.6506C27.8681 23.0574 27.523 23.408 27.1182 23.6819C26.1937 24.3081 25.2865 24.3904 24.2112 24.1992C24.107 24.1679 24.0003 24.1351 23.8983 24.0975C23.4415 23.9297 23.0233 23.6743 22.668 23.3461C22.3126 23.0179 22.0273 22.6236 21.8287 22.186C21.4618 21.3588 21.3898 19.9304 22.1261 19.2896C22.5174 18.9491 23.3455 18.5967 23.8323 18.35C24.6188 17.9517 25.421 17.5342 26.2284 17.1851Z" fill="#E9E8F2"/>
<path d="M24.9916 19.0328C25.4083 19.1004 25.6312 19.3634 25.8609 19.6719C25.658 19.8228 25.2917 20.0817 25.5705 20.371C25.7347 20.5414 26.0302 20.4957 26.2519 20.4838C26.5469 22.1946 25.3358 23.5697 23.5355 23.1455C22.3144 22.67 21.9939 21.7154 22.114 20.5135C22.8517 20.539 23.162 20.2738 22.4925 19.7179C23.0914 19.2674 24.2363 19.1147 24.9916 19.0328Z" fill="#010130"/>
<path d="M30.8657 5.74451C31.4258 5.42748 31.8819 5.16695 32.3445 4.76247C33.5393 3.71756 33.8811 2.3291 33.6824 0.816292C33.622 0.356982 33.9873 -0.172422 34.5161 0.0540981C35.2627 0.340905 35.8784 1.31756 36.1941 1.97879C36.5577 2.7223 36.7657 3.52991 36.8059 4.35382C36.8461 5.17772 36.7176 6.00117 36.428 6.77542C35.933 8.0843 34.7673 9.51191 33.4705 10.1024L33.428 10.1213C33.3405 10.0626 32.7623 8.62343 32.6507 8.40696C32.154 7.45951 31.5556 6.56696 30.8657 5.74451Z" fill="#22BCD3"/>
<path d="M5.40113 10.1538C2.64851 8.84327 1.28264 5.55053 2.26828 2.74862C2.54501 1.96215 3.57189 -0.207398 4.69148 0.0574648C5.17538 0.17193 5.00118 1.5677 5.02532 1.97814C5.04634 2.3534 5.12127 2.72386 5.24788 3.07851C5.72466 4.40507 6.63306 5.09637 7.87596 5.67802C7.12654 6.69077 6.45395 7.72996 5.94247 8.8829C5.84273 9.10789 5.50652 10.0366 5.40113 10.1538Z" fill="#22BCD3"/>
<defs>
<linearGradient id="paint0_linear_15060_1630" x1="20.1175" y1="0.12368" x2="19.1497" y2="35.0926" gradientUnits="userSpaceOnUse">
<stop stop-color="#66D5C6"/>
<stop offset="1" stop-color="#16B8D5"/>
</linearGradient>
</defs>
</svg>
