<svg width="11" height="11" viewBox="0 0 11 11" fill="none" xmlns="http://www.w3.org/2000/svg">
<path d="M4.875 9H1.875C1.0865 9 0.75 8.6635 0.75 7.875V3.75H9V4.875C9 5.082 9.168 5.25 9.375 5.25C9.582 5.25 9.75 5.082 9.75 4.875V2.625C9.75 1.416 9.084 0.75 7.875 0.75H7.25V0.375C7.25 0.168 7.082 0 6.875 0C6.668 0 6.5 0.168 6.5 0.375V0.75H3.25V0.375C3.25 0.168 3.082 0 2.875 0C2.668 0 2.5 0.168 2.5 0.375V0.75H1.875C0.666 0.75 0 1.416 0 2.625V7.875C0 9.084 0.666 9.75 1.875 9.75H4.875C5.082 9.75 5.25 9.582 5.25 9.375C5.25 9.168 5.082 9 4.875 9ZM1.875 1.5H2.5V1.875C2.5 2.082 2.668 2.25 2.875 2.25C3.082 2.25 3.25 2.082 3.25 1.875V1.5H6.5V1.875C6.5 2.082 6.668 2.25 6.875 2.25C7.082 2.25 7.25 2.082 7.25 1.875V1.5H7.875C8.6635 1.5 9 1.8365 9 2.625V3H0.75V2.625C0.75 1.8365 1.0865 1.5 1.875 1.5ZM3.38501 5.375C3.38501 5.651 3.16151 5.875 2.88501 5.875C2.60901 5.875 2.38245 5.651 2.38245 5.375C2.38245 5.099 2.604 4.875 2.88 4.875H2.88501C3.16101 4.875 3.38501 5.099 3.38501 5.375ZM5.38501 5.375C5.38501 5.651 5.16151 5.875 4.88501 5.875C4.60901 5.875 4.38245 5.651 4.38245 5.375C4.38245 5.099 4.604 4.875 4.88 4.875H4.88501C5.16101 4.875 5.38501 5.099 5.38501 5.375ZM8.375 6C7.0655 6 6 7.0655 6 8.375C6 9.6845 7.0655 10.75 8.375 10.75C9.6845 10.75 10.75 9.6845 10.75 8.375C10.75 7.0655 9.6845 6 8.375 6ZM8.375 10C7.479 10 6.75 9.271 6.75 8.375C6.75 7.479 7.479 6.75 8.375 6.75C9.271 6.75 10 7.479 10 8.375C10 9.271 9.271 10 8.375 10ZM3.38501 7.375C3.38501 7.651 3.16151 7.875 2.88501 7.875C2.60901 7.875 2.38245 7.651 2.38245 7.375C2.38245 7.099 2.604 6.875 2.88 6.875H2.88501C3.16101 6.875 3.38501 7.099 3.38501 7.375ZM9.17603 8.64551C9.32253 8.79151 9.32253 9.02953 9.17603 9.17603C9.10303 9.24903 9.00701 9.28601 8.91101 9.28601C8.81501 9.28601 8.719 9.24953 8.646 9.17603L8.11047 8.6405C8.03997 8.57 8.00049 8.47499 8.00049 8.37549V7.62549C8.00049 7.41849 8.16849 7.25049 8.37549 7.25049C8.58249 7.25049 8.75049 7.41849 8.75049 7.62549V8.21997L9.17603 8.64551Z" fill="white" fill-opacity="0.5"/>
</svg>
