<svg width="169" height="36" viewBox="0 0 169 36" fill="none" xmlns="http://www.w3.org/2000/svg">
<path d="M168.386 29.8136C168.163 29.8542 167.828 29.9049 167.382 29.9657C166.956 30.0469 166.52 30.0875 166.074 30.0875C165.627 30.0875 165.222 30.057 164.857 29.9962C164.512 29.9353 164.218 29.8136 163.974 29.631C163.731 29.4484 163.538 29.205 163.396 28.9007C163.274 28.5761 163.213 28.1603 163.213 27.6531V15.2684C163.436 15.2278 163.761 15.1771 164.187 15.1162C164.633 15.0351 165.08 14.9945 165.526 14.9945C165.972 14.9945 166.368 15.0249 166.713 15.0858C167.078 15.1466 167.382 15.2684 167.626 15.4509C167.869 15.6335 168.052 15.8871 168.173 16.2117C168.315 16.516 168.386 16.9217 168.386 17.4288V29.8136Z" fill="#010130"/>
<path d="M160.522 11.4037C160.664 11.6269 160.785 11.9312 160.887 12.3166C161.008 12.6818 161.069 13.0672 161.069 13.4729C161.069 14.2641 160.897 14.8321 160.552 15.177C160.227 15.5016 159.781 15.6638 159.213 15.6638H152.823V19.1024H159.487C159.649 19.3255 159.781 19.6197 159.883 19.9848C160.004 20.35 160.065 20.7354 160.065 21.1411C160.065 21.912 159.893 22.4699 159.548 22.8147C159.223 23.1393 158.777 23.3016 158.209 23.3016H152.884V29.7222C152.661 29.7831 152.306 29.8439 151.819 29.9048C151.352 29.9657 150.886 29.9961 150.419 29.9961C149.952 29.9961 149.537 29.9555 149.171 29.8744C148.827 29.8135 148.532 29.6918 148.289 29.5092C148.046 29.3266 147.863 29.0731 147.741 28.7485C147.62 28.4239 147.559 27.9979 147.559 27.4704V14.2337C147.559 13.3614 147.812 12.6716 148.319 12.1645C148.827 11.6573 149.516 11.4037 150.389 11.4037H160.522Z" fill="#010130"/>
<path d="M140.153 24.7623C140.153 25.2897 140.315 25.665 140.64 25.8881C140.985 26.1113 141.462 26.2229 142.07 26.2229C142.374 26.2229 142.689 26.2026 143.013 26.162C143.338 26.1011 143.622 26.0301 143.865 25.949C144.048 26.1722 144.2 26.4257 144.322 26.7097C144.464 26.9735 144.535 27.298 144.535 27.6835C144.535 28.4544 144.241 29.0832 143.652 29.5701C143.084 30.057 142.07 30.3004 140.61 30.3004C138.824 30.3004 137.445 29.8947 136.471 29.0832C135.518 28.2718 135.041 26.9532 135.041 25.1274V12.1036C135.264 12.0428 135.579 11.9819 135.984 11.9211C136.41 11.8399 136.857 11.7993 137.323 11.7993C138.216 11.7993 138.906 11.9616 139.392 12.2862C139.9 12.5905 140.153 13.2498 140.153 14.2641V16.2116H144.139C144.261 16.4348 144.373 16.7188 144.474 17.0636C144.596 17.3882 144.657 17.7534 144.657 18.1591C144.657 18.8691 144.494 19.3864 144.17 19.711C143.866 20.0153 143.45 20.1674 142.922 20.1674H140.153V24.7623Z" fill="#010130"/>
<path d="M128.43 18.6764C127.923 18.6764 127.436 18.7576 126.969 18.9199C126.523 19.0822 126.128 19.3256 125.783 19.6502C125.458 19.9545 125.194 20.3399 124.992 20.8065C124.789 21.2731 124.687 21.8208 124.687 22.4497C124.687 23.7074 125.042 24.6507 125.752 25.2796C126.483 25.9085 127.365 26.2229 128.4 26.2229C129.008 26.2229 129.536 26.1519 129.982 26.0099C130.428 25.8679 130.824 25.7158 131.169 25.5535C131.574 25.8375 131.879 26.1519 132.082 26.4968C132.284 26.8214 132.386 27.2169 132.386 27.6835C132.386 28.5153 131.99 29.1644 131.199 29.631C130.408 30.0773 129.313 30.3004 127.913 30.3004C126.635 30.3004 125.478 30.1179 124.444 29.7527C123.409 29.3673 122.517 28.8398 121.766 28.1704C121.036 27.4807 120.468 26.6591 120.062 25.7056C119.656 24.7522 119.453 23.6973 119.453 22.541C119.453 21.2021 119.666 20.0356 120.092 19.0416C120.539 18.0273 121.137 17.1955 121.888 16.5464C122.638 15.8972 123.501 15.4103 124.474 15.0858C125.468 14.7612 126.513 14.5989 127.608 14.5989C129.069 14.5989 130.195 14.8626 130.986 15.3901C131.777 15.9175 132.173 16.5971 132.173 17.4288C132.173 17.8143 132.082 18.1794 131.899 18.5243C131.716 18.8489 131.503 19.1329 131.26 19.3763C130.915 19.214 130.499 19.0619 130.012 18.9199C129.526 18.7576 128.998 18.6764 128.43 18.6764Z" fill="#010130"/>
<path d="M116.799 29.8136C116.576 29.8542 116.241 29.9049 115.795 29.9657C115.369 30.0469 114.933 30.0875 114.486 30.0875C114.04 30.0875 113.634 30.057 113.269 29.9962C112.924 29.9353 112.63 29.8136 112.387 29.631C112.143 29.4484 111.951 29.205 111.809 28.9007C111.687 28.5761 111.626 28.1603 111.626 27.6531V15.2684C111.849 15.2278 112.174 15.1771 112.6 15.1162C113.046 15.0351 113.492 14.9945 113.939 14.9945C114.385 14.9945 114.781 15.0249 115.125 15.0858C115.491 15.1466 115.795 15.2684 116.038 15.4509C116.282 15.6335 116.464 15.8871 116.586 16.2117C116.728 16.516 116.799 16.9217 116.799 17.4288V29.8136Z" fill="#010130"/>
<path d="M113.56 6.2526C115.127 5.95048 116.644 6.96049 116.939 8.50197C117.234 10.0435 116.194 11.5256 114.622 11.8029C113.068 12.0771 111.58 11.0693 111.288 9.54527C110.997 8.02123 112.011 6.55131 113.56 6.2526Z" fill="#32C1CD"/>
<path d="M165.246 6.2526C166.812 5.95048 168.33 6.96049 168.625 8.50197C168.92 10.0435 167.879 11.5256 166.308 11.8029C164.754 12.0771 163.265 11.0693 162.974 9.54527C162.682 8.02123 163.696 6.55131 165.246 6.2526Z" fill="#32C1CD"/>
<path d="M93.0357 22.4496C93.0357 21.1108 93.2385 19.9544 93.6443 18.9807C94.05 17.9867 94.6079 17.1651 95.3179 16.5159C96.0482 15.8668 96.8901 15.39 97.8435 15.0857C98.8173 14.7612 99.862 14.5989 100.978 14.5989C101.383 14.5989 101.779 14.6394 102.164 14.7206C102.55 14.7814 102.864 14.8626 103.108 14.964V10.0345C103.311 9.97361 103.635 9.91275 104.082 9.85189C104.528 9.77075 104.984 9.73018 105.451 9.73018C105.897 9.73018 106.293 9.7606 106.638 9.82146C107.003 9.88232 107.307 10.004 107.55 10.1866C107.794 10.3692 107.976 10.6228 108.098 10.9473C108.22 11.2516 108.281 11.6574 108.281 12.1645V26.588C108.281 27.5415 107.834 28.3022 106.942 28.8702C106.354 29.2557 105.593 29.5904 104.66 29.8744C103.727 30.1787 102.651 30.3309 101.434 30.3309C100.116 30.3309 98.9288 30.1483 97.8739 29.7831C96.8393 29.418 95.9569 28.8905 95.2266 28.2008C94.5166 27.5111 93.9688 26.6895 93.5834 25.736C93.2182 24.7623 93.0357 23.6668 93.0357 22.4496ZM101.678 18.646C100.582 18.646 99.7403 18.9604 99.152 19.5893C98.5637 20.2182 98.2695 21.1716 98.2695 22.4496C98.2695 23.7074 98.5434 24.6608 99.0911 25.31C99.6388 25.9389 100.43 26.2533 101.465 26.2533C101.83 26.2533 102.154 26.2026 102.438 26.1012C102.743 25.9795 102.976 25.8476 103.138 25.7056V19.0111C102.732 18.7677 102.246 18.646 101.678 18.646Z" fill="#010130"/>
<path d="M84.7944 30.3309C83.5975 30.3309 82.4818 30.1686 81.4472 29.844C80.4328 29.4991 79.5402 28.992 78.7694 28.3225C78.0188 27.6531 77.4203 26.8112 76.974 25.7969C76.548 24.7826 76.335 23.5958 76.335 22.2367C76.335 20.8978 76.548 19.7516 76.974 18.7981C77.4203 17.8244 77.9985 17.0332 78.7085 16.4247C79.4185 15.7958 80.23 15.3393 81.1429 15.0553C82.0557 14.751 82.9889 14.5989 83.9424 14.5989C85.0175 14.5989 85.9913 14.7612 86.8636 15.0858C87.7562 15.4103 88.5169 15.8566 89.1458 16.4247C89.7949 16.9927 90.292 17.6723 90.6368 18.4634C91.002 19.2546 91.1846 20.1168 91.1846 21.0499C91.1846 21.7397 90.9918 22.2671 90.6064 22.6322C90.221 22.9974 89.6834 23.2307 88.9936 23.3321L81.4776 24.458C81.7007 25.1275 82.1572 25.6346 82.8469 25.9795C83.5366 26.3041 84.3278 26.4663 85.2204 26.4663C86.0521 26.4663 86.8332 26.3649 87.5635 26.1621C88.314 25.9389 88.9226 25.6853 89.3892 25.4013C89.7138 25.6042 89.9877 25.8882 90.2108 26.2533C90.434 26.6185 90.5455 27.0039 90.5455 27.4097C90.5455 28.3225 90.1195 29.0021 89.2675 29.4484C88.6183 29.7933 87.888 30.0266 87.0766 30.1483C86.2651 30.27 85.5044 30.3309 84.7944 30.3309ZM83.9424 18.3721C83.4555 18.3721 83.0295 18.4533 82.6643 18.6156C82.3195 18.7779 82.0355 18.9909 81.8123 19.2546C81.5892 19.498 81.4167 19.782 81.295 20.1066C81.1936 20.4109 81.1327 20.7253 81.1124 21.0499L86.3159 20.1979C86.255 19.7922 86.0318 19.3864 85.6464 18.9807C85.261 18.575 84.693 18.3721 83.9424 18.3721Z" fill="#010130"/>
<path d="M70.2008 29.8136C69.9979 29.8744 69.6734 29.9353 69.2271 29.9962C68.801 30.057 68.3547 30.0874 67.8882 30.0874C67.4419 30.0874 67.0361 30.057 66.671 29.9962C66.3261 29.9353 66.032 29.8136 65.7885 29.631C65.5451 29.4484 65.3524 29.205 65.2104 28.9007C65.0887 28.5761 65.0278 28.1602 65.0278 27.6531V18.5243C65.0278 18.0577 65.1089 17.6621 65.2712 17.3375C65.4538 16.9927 65.7074 16.6884 66.032 16.4247C66.3566 16.1609 66.7521 15.9276 67.2187 15.7248C67.7056 15.5016 68.2229 15.3089 68.7706 15.1466C69.3183 14.9843 69.8864 14.8626 70.4747 14.7815C71.063 14.68 71.6513 14.6293 72.2396 14.6293C73.2133 14.6293 73.9842 14.822 74.5522 15.2075C75.1202 15.5726 75.4042 16.1812 75.4042 17.0332C75.4042 17.3173 75.3636 17.6013 75.2825 17.8853C75.2014 18.149 75.0999 18.3924 74.9782 18.6156C74.5522 18.6156 74.116 18.6359 73.6697 18.6764C73.2234 18.717 72.7873 18.7779 72.3613 18.859C71.9353 18.9402 71.5295 19.0314 71.1441 19.1329C70.779 19.214 70.4645 19.3154 70.2008 19.4372V29.8136Z" fill="#010130"/>
<path d="M55.2444 19.9544C56.0964 19.9544 56.7456 19.7617 57.1919 19.3763C57.6585 18.9706 57.8918 18.362 57.8918 17.5505C57.8918 16.7797 57.6483 16.1914 57.1615 15.7856C56.6949 15.3596 56.0052 15.1466 55.0923 15.1466C54.7677 15.1466 54.4938 15.1568 54.2707 15.177C54.0678 15.177 53.8548 15.1973 53.6317 15.2379V19.9544H55.2444ZM53.6621 29.7223C53.4389 29.7831 53.0839 29.844 52.5971 29.9049C52.1305 29.9657 51.6639 29.9961 51.1973 29.9961C50.7307 29.9961 50.3149 29.9556 49.9497 29.8744C49.6048 29.8136 49.3107 29.6918 49.0673 29.5093C48.8238 29.3267 48.6413 29.0731 48.5195 28.7485C48.3978 28.424 48.337 27.9979 48.337 27.4705V13.1383C48.337 12.7123 48.4485 12.3877 48.6717 12.1645C48.9151 11.9211 49.2397 11.7284 49.6454 11.5864C50.3352 11.3429 51.1162 11.1705 51.9885 11.0691C52.8811 10.9474 53.7737 10.8865 54.6663 10.8865C57.4658 10.8865 59.606 11.4849 61.0869 12.6818C62.5678 13.8787 63.3082 15.5016 63.3082 17.5505C63.3082 18.5446 63.1459 19.4473 62.8213 20.2587C62.517 21.0499 62.0505 21.7396 61.4216 22.3279C60.813 22.896 60.032 23.3423 59.0785 23.6668C58.1454 23.9711 57.06 24.1233 55.8226 24.1233H53.6621V29.7223Z" fill="#010130"/>
<path d="M7.8759 5.678C10.005 2.80309 13.7159 0.780653 17.2704 0.229304C19.104 -0.0482712 20.9754 0.0336872 22.7766 0.470448C24.5778 0.907209 26.2731 1.69012 27.7647 2.774C28.9365 3.61463 29.9805 4.61482 30.8655 5.74448C31.5554 6.56693 32.1538 7.45948 32.6505 8.40693C32.7621 8.6234 33.3403 10.0626 33.4278 10.1213C33.3781 10.2426 33.731 11.2628 33.7893 11.5104C33.9228 12.092 34.0257 12.6798 34.0976 13.2717C34.3032 15.0115 34.178 16.7737 33.7283 18.4685C33.2823 20.129 32.4785 21.8047 31.3717 23.1265C30.6027 24.0448 30.2874 24.8428 30.7482 26.0252C30.9816 26.6241 31.6139 27.1343 32.198 27.3954C33.2656 27.8474 34.7303 27.6471 35.1965 26.4661C35.4229 25.9177 35.2854 25.1959 34.64 25.0066C34.0984 24.848 34.0382 25.5964 33.7466 25.8158C33.385 26.0878 32.8 25.9581 32.5698 25.5774C31.9675 24.5813 32.5444 23.3938 33.4899 22.8522C35.2221 21.8861 37.1693 22.6867 38.1148 24.3022C38.7465 25.3999 38.9151 26.697 38.5844 27.9155C38.2212 29.23 37.33 30.3028 36.124 30.9662C34.5028 31.8578 32.592 31.93 30.8239 31.4489C30.2198 31.2846 29.6725 31.0207 29.1095 30.7609C29.5842 31.4633 30.0706 32.3521 29.8319 33.1658C29.0894 35.6958 25.6591 35.2286 24.0843 33.7598C23.2959 33.0246 23.0458 32.6499 22.5126 31.8201C22.6116 32.5704 22.584 33.2193 22.0843 33.8679C20.6168 35.772 16.5988 35.2598 16.3217 32.656C16.2957 32.4111 16.3066 32.1014 16.3167 31.8475C15.3388 33.3484 14.3853 34.4447 12.5298 34.877C11.0872 35.2132 9.24366 34.714 8.91146 33.1148C8.69675 32.0705 9.13844 31.3693 9.68682 30.5224C9.10939 30.8886 8.59783 31.0718 7.97123 31.2928C4.72546 32.4376 0.832148 31.0497 0.0935289 27.4898C-0.264939 25.7624 0.418449 23.9515 1.94707 22.9575C3.23669 22.1329 5.13507 22.2385 6.01467 23.584C6.42992 24.2421 6.58711 25.3325 5.80823 25.7994C5.46392 26.0129 4.96946 26.0192 4.79272 25.5973C4.58726 25.1033 4.33271 24.7345 3.77148 25.1083C3.2173 25.4775 3.32898 26.4424 3.71314 26.8735C5.14456 28.4799 7.79956 27.1695 8.00519 25.2255C8.15255 23.8325 7.39298 23.3064 6.73259 22.202C6.27078 21.4435 5.94986 20.8536 5.60359 20.0369C5.04891 18.6971 4.72132 17.2771 4.63382 15.8333C4.53997 14.4165 4.65818 12.9939 4.98468 11.6108C5.0791 11.2142 5.35092 10.4864 5.40108 10.1537C5.50646 10.0365 5.84268 9.10787 5.94242 8.88288C6.4539 7.72994 7.12648 6.69075 7.8759 5.678Z" fill="url(#paint0_linear_15060_1616)"/>
<path d="M13.4165 15.0726L13.451 15.0673C14.5167 14.9555 15.5859 15.2452 16.4426 15.8779C16.945 16.2508 17.3671 16.7179 17.6844 17.2522C18.0018 17.7865 18.2081 18.3773 18.2914 18.9905C18.4628 20.2437 18.1507 21.6072 17.3628 22.6165C17.0226 23.06 16.5959 23.4326 16.1076 23.7126C15.6193 23.9925 15.0792 24.1742 14.5188 24.2471C10.7996 24.7074 8.55007 20.6475 10.0155 17.5518C10.7024 16.1009 11.8333 15.316 13.4165 15.0726Z" fill="#E9E8F2"/>
<path d="M14.2602 17.2306C15.0716 17.1631 15.9021 17.3834 16.4949 17.9418C18.4162 19.7512 17.3101 22.962 14.5788 23.0616C14.2428 23.0513 13.9116 22.9801 13.6018 22.8517C12.0613 22.2215 11.4397 20.4988 12.0587 19.0101C12.3072 19.0373 13.2362 19.1714 13.2192 18.6338C13.2127 18.4257 12.859 18.1686 12.6741 18.0552C13.2631 17.5485 13.4911 17.375 14.2602 17.2306Z" fill="#010130"/>
<path d="M26.2284 17.1851C26.2677 17.1828 26.3215 17.1814 26.3594 17.1906C28.2345 17.6504 28.9728 19.6109 28.6619 21.3135C28.578 21.7893 28.3983 22.2439 28.1332 22.6506C27.8681 23.0574 27.523 23.408 27.1182 23.6819C26.1937 24.3081 25.2865 24.3904 24.2112 24.1992C24.107 24.1679 24.0003 24.1351 23.8983 24.0975C23.4415 23.9297 23.0233 23.6743 22.668 23.3461C22.3126 23.0179 22.0273 22.6236 21.8287 22.186C21.4618 21.3588 21.3898 19.9304 22.1261 19.2896C22.5174 18.9491 23.3455 18.5967 23.8323 18.35C24.6188 17.9517 25.421 17.5342 26.2284 17.1851Z" fill="#E9E8F2"/>
<path d="M24.9916 19.0328C25.4083 19.1004 25.6312 19.3634 25.8609 19.6719C25.658 19.8228 25.2917 20.0817 25.5705 20.371C25.7347 20.5414 26.0302 20.4957 26.2519 20.4838C26.5469 22.1946 25.3358 23.5697 23.5355 23.1455C22.3144 22.67 21.9939 21.7154 22.114 20.5135C22.8517 20.539 23.162 20.2738 22.4925 19.7179C23.0914 19.2674 24.2363 19.1147 24.9916 19.0328Z" fill="#010130"/>
<path d="M30.8657 5.74451C31.4258 5.42748 31.8819 5.16695 32.3445 4.76247C33.5393 3.71756 33.8811 2.3291 33.6824 0.816292C33.622 0.356982 33.9873 -0.172422 34.5161 0.0540981C35.2627 0.340905 35.8784 1.31756 36.1941 1.97879C36.5577 2.7223 36.7657 3.52991 36.8059 4.35382C36.8461 5.17772 36.7176 6.00117 36.428 6.77542C35.933 8.0843 34.7673 9.51191 33.4705 10.1024L33.428 10.1213C33.3405 10.0626 32.7623 8.62343 32.6507 8.40696C32.154 7.45951 31.5556 6.56696 30.8657 5.74451Z" fill="#22BCD3"/>
<path d="M5.40113 10.1538C2.64851 8.84327 1.28264 5.55053 2.26828 2.74862C2.54501 1.96215 3.57189 -0.207398 4.69148 0.0574648C5.17538 0.17193 5.00118 1.5677 5.02532 1.97814C5.04634 2.3534 5.12127 2.72386 5.24788 3.07851C5.72466 4.40507 6.63306 5.09637 7.87596 5.67802C7.12654 6.69077 6.45395 7.72996 5.94247 8.8829C5.84273 9.10789 5.50652 10.0366 5.40113 10.1538Z" fill="#22BCD3"/>
<path d="M25.3203 24.634C25.9411 24.633 26.2381 24.8569 26.6242 25.204C27.4253 26.039 27.4119 26.8857 26.9177 27.8707C26.6585 28.2803 26.4831 28.4696 26.0726 28.7427C25.4527 29.1552 24.7783 29.4184 24.0714 29.645C21.5431 30.4554 18.5173 30.4784 15.9157 29.9886C14.7343 29.7662 13.1338 29.2877 12.2473 28.4626C12.052 28.2809 11.9129 28.0792 11.7632 27.8623C11.3387 26.9263 11.3736 26.0633 12.0935 25.2731C12.5039 24.9142 12.9732 24.6496 13.5396 24.6457C14.0788 24.6419 14.5223 24.9408 14.998 25.1506C17.2127 26.1271 20.8622 26.2402 23.2025 25.3707C23.8991 25.1119 24.5943 24.6353 25.3201 24.634H25.3203Z" fill="url(#paint1_linear_15060_1616)"/>
<path d="M14.4569 27.8162C15.8124 28.6511 19.8402 29.9553 24.496 27.9588C24.7932 27.8314 25.1217 28.0569 25.1096 28.38L25.0877 28.9636L25.0448 29.2379C19.9183 31.4363 15.4144 30.0408 13.7268 29.0015C13.6542 28.953 13.617 28.8662 13.6321 28.7802L13.7445 28.1369C13.8019 27.8083 14.1728 27.6413 14.4569 27.8162Z" fill="url(#paint2_linear_15060_1616)"/>
<path d="M14.0072 28.3566C14.036 28.3099 14.0973 28.2954 14.1441 28.3242C15.642 29.2467 19.8737 30.5901 24.7312 28.5071C24.7816 28.4855 24.8402 28.5087 24.8619 28.5591C24.8835 28.6096 24.8601 28.6682 24.8096 28.6898C19.8849 30.8017 15.5849 29.4453 14.0396 28.4935C13.9929 28.4647 13.9784 28.4034 14.0072 28.3566Z" fill="#D40A1C"/>
<defs>
<linearGradient id="paint0_linear_15060_1616" x1="20.1175" y1="0.12368" x2="19.1497" y2="35.0926" gradientUnits="userSpaceOnUse">
<stop stop-color="#66D5C6"/>
<stop offset="1" stop-color="#16B8D5"/>
</linearGradient>
<linearGradient id="paint1_linear_15060_1616" x1="19.3638" y1="30.2563" x2="19.3749" y2="25.9089" gradientUnits="userSpaceOnUse">
<stop stop-color="#DB1627"/>
<stop offset="1" stop-color="#FF384A"/>
</linearGradient>
<linearGradient id="paint2_linear_15060_1616" x1="19.1357" y1="29.0586" x2="19.0908" y2="30.4419" gradientUnits="userSpaceOnUse">
<stop stop-color="#E52032"/>
<stop offset="1" stop-color="#E9293E"/>
</linearGradient>
</defs>
</svg>
